<svg width="29" height="27" viewBox="0 0 29 27" fill="none" xmlns="http://www.w3.org/2000/svg">
<path d="M26.06 4.98486V2.77409H23.9652V0.679688H21.8703H19.7755H17.6807V2.77409H15.4695V4.98486H13.3747V2.77409H11.1635V0.679688H9.0687H6.97389H4.87908V2.77409H6.97389V4.98486H4.87908V7.07927H2.78427V4.98486H4.87908V2.77409H2.78427V4.98486H0.689453V7.07927V9.17367V11.2681V13.3625H2.78427V15.5733H4.87908V13.3625H2.78427V11.2681H4.87908H6.97389H9.0687H11.1635H13.3747H15.4695H17.5643H19.7755H21.8703H23.9652H26.06V13.3625H23.9652V15.5733H26.06V13.3625H28.2712V11.2681V9.17367V7.07927V4.98486H26.06Z" fill="black"/>
<path d="M23.9649 15.5732H21.8701V17.6677H23.9649V15.5732Z" fill="black"/>
<path d="M21.8702 17.668H19.7754V19.7624H21.8702V17.668Z" fill="black"/>
<path d="M19.7757 19.7617H17.5645V21.8561H19.7757V19.7617Z" fill="black"/>
<path d="M17.5645 21.8564H15.4697V24.0672H17.5645V21.8564Z" fill="black"/>
<path d="M15.4698 24.0674H13.375V26.1618H15.4698V24.0674Z" fill="black"/>
<path d="M13.3743 21.8564H11.1631V24.0672H13.3743V21.8564Z" fill="black"/>
<path d="M11.1632 19.7617H9.06836V21.8561H11.1632V19.7617Z" fill="black"/>
<path d="M9.06844 17.668H6.97363V19.7624H9.06844V17.668Z" fill="black"/>
<path d="M6.97372 15.5732H4.87891V17.6677H6.97372V15.5732Z" fill="black"/>
</svg>
